<?xml version="1.0" standalone="no"?>
<svg xmlns:xlink="http://www.w3.org/1999/xlink" id="wave" style="transform:rotate(180deg); transition: 0.3s" viewBox="0 0 1440 100" version="1.1" xmlns="http://www.w3.org/2000/svg"><defs><linearGradient id="sw-gradient-0" x1="0" x2="0" y1="1" y2="0"><stop stop-color="rgba(255, 255, 255, 1)" offset="0%"/><stop stop-color="rgba(255, 255, 255, 1)" offset="100%"/></linearGradient></defs><path style="transform:translate(0, 0px); opacity:1" fill="url(#sw-gradient-0)" d="M0,60L40,56.7C80,53,160,47,240,40C320,33,400,27,480,23.3C560,20,640,20,720,25C800,30,880,40,960,51.7C1040,63,1120,77,1200,78.3C1280,80,1360,70,1440,56.7C1520,43,1600,27,1680,26.7C1760,27,1840,43,1920,46.7C2000,50,2080,40,2160,30C2240,20,2320,10,2400,18.3C2480,27,2560,53,2640,60C2720,67,2800,53,2880,48.3C2960,43,3040,47,3120,45C3200,43,3280,37,3360,41.7C3440,47,3520,63,3600,73.3C3680,83,3760,87,3840,73.3C3920,60,4000,30,4080,15C4160,0,4240,0,4320,13.3C4400,27,4480,53,4560,63.3C4640,73,4720,67,4800,56.7C4880,47,4960,33,5040,35C5120,37,5200,53,5280,58.3C5360,63,5440,57,5520,55C5600,53,5680,57,5720,58.3L5760,60L5760,100L5720,100C5680,100,5600,100,5520,100C5440,100,5360,100,5280,100C5200,100,5120,100,5040,100C4960,100,4880,100,4800,100C4720,100,4640,100,4560,100C4480,100,4400,100,4320,100C4240,100,4160,100,4080,100C4000,100,3920,100,3840,100C3760,100,3680,100,3600,100C3520,100,3440,100,3360,100C3280,100,3200,100,3120,100C3040,100,2960,100,2880,100C2800,100,2720,100,2640,100C2560,100,2480,100,2400,100C2320,100,2240,100,2160,100C2080,100,2000,100,1920,100C1840,100,1760,100,1680,100C1600,100,1520,100,1440,100C1360,100,1280,100,1200,100C1120,100,1040,100,960,100C880,100,800,100,720,100C640,100,560,100,480,100C400,100,320,100,240,100C160,100,80,100,40,100L0,100Z"/></svg>